<svg id="Layer_1" data-name="Layer 1" xmlns="http://www.w3.org/2000/svg" viewBox="0 0 281.11 281.11"><defs><style>.cls-1{fill:#f1f2f2;}.cls-2{fill:#414042;}.cls-3{fill:none;stroke:#414042;stroke-linecap:round;stroke-linejoin:round;stroke-width:12px;}</style></defs><circle class="cls-1" cx="-304.06" cy="-135.52" r="140.55" transform="translate(451.39 21.38) rotate(-45)"/><path class="cls-2" d="M-231.89-148.31c0,18.27-48.31,124.71-70.47,124.71-25.7,0-70.47-108.64-70.47-124.71,0-36.48,31.55-23.12,70.47-23.12S-231.89-184.79-231.89-148.31Z" transform="translate(444.62 276.07)"/><circle class="cls-2" cx="71.79" cy="99.91" r="48.3"/><circle class="cls-2" cx="212.72" cy="99.91" r="48.3"/><path class="cls-3" d="M-323.76-55.42s-31.59-32.67-74.11-17.5" transform="translate(444.62 276.07)"/><path class="cls-3" d="M-318.89-48.5s-39-31.29-61.57,13.57" transform="translate(444.62 276.07)"/><path class="cls-3" d="M-281.43-55.42s31.59-32.67,74.11-17.5" transform="translate(444.62 276.07)"/><path class="cls-3" d="M-286.3-48.5s39-31.29,61.57,13.57" transform="translate(444.62 276.07)"/><ellipse class="cls-1" cx="-334.93" cy="-111.71" rx="10.04" ry="13.28" transform="translate(462.75 166.09) rotate(-18.17)"/><ellipse class="cls-1" cx="-269.79" cy="-111.71" rx="13.28" ry="10.04" transform="matrix(0.31, -0.95, 0.95, 0.31, 365.07, -57.15)"/><path class="cls-1" d="M-338.79-170.49c21-8.77,52.82-10.27,72.17,3.07-23.9-5.48-47.88-3.56-72.17-3.07Z" transform="translate(444.62 276.07)"/></svg>